<svg width="24" height="24" viewBox="0 0 24 24" fill="none" xmlns="http://www.w3.org/2000/svg">
<path d="M5.84852 17C3.28541 11.2609 6.87375 6 12 6" stroke="black" stroke-opacity="0.33"/>
<circle cx="6" cy="18" r="1.5" fill="#D9D9D9" stroke="black"/>
<path d="M12 3.5L17 6L12 8.5L12 3.5Z" fill="black" fill-opacity="0.33"/>
<circle cx="6" cy="18" r="1.5" fill="#D9D9D9" stroke="black"/>
<circle r="1.5" transform="matrix(1.19249e-08 -1 -1 -1.19249e-08 6 18)" fill="#D9D9D9" stroke="black"/>
<circle r="1.5" transform="matrix(1.19249e-08 -1 -1 -1.19249e-08 6 18)" fill="#D9D9D9" stroke="black"/>
<path d="M7 18.1515C12.7391 20.7146 18 17.1263 18 12" stroke="black" stroke-linecap="round"/>
<path d="M16.309 11.5L19.691 11.5L18 8.11803L16.309 11.5Z" fill="black" stroke="black"/>
<circle cx="6" cy="18" r="1.5" fill="#D9D9D9" stroke="black"/>
</svg>
